<svg version="1.1" id="Layer_1" xmlns="http://www.w3.org/2000/svg" xmlns:xlink="http://www.w3.org/1999/xlink" x="0px" y="0px"
	 width="100%" viewBox="0 0 150 150" enable-background="new 0 0 150 150" xml:space="preserve">
<path fill="#FFFFFF" opacity="1.000000" stroke="none" 
	d="
M1.000000,51.000000 
	C1.000000,34.000000 1.000000,17.500000 1.000000,1.000000 
	C51.000000,1.000000 101.000000,1.000000 151.000000,1.000000 
	C151.000000,51.000000 151.000000,101.000000 151.000000,151.000000 
	C101.000000,151.000000 51.000000,151.000000 1.000000,151.000000 
	C1.000000,117.833336 1.000000,84.666664 1.000000,51.000000 
M11.505244,130.873444 
	C16.904915,137.628143 23.953751,140.142761 32.538113,140.083008 
	C62.031090,139.877716 91.526421,140.032837 121.020775,139.991837 
	C135.503998,139.971710 144.973907,130.449966 144.993744,115.916199 
	C145.030136,89.254639 145.034790,62.592941 144.991806,35.931396 
	C144.968521,21.488226 135.417038,12.023435 120.864761,12.006373 
	C91.037132,11.971401 61.209400,11.976478 31.381750,12.004025 
	C16.446415,12.017818 7.022864,21.388903 7.004878,36.251568 
	C6.972814,62.746506 6.794043,89.244438 7.178500,115.733841 
	C7.249231,120.607269 9.696532,125.446198 11.505244,130.873444 
z"/>
<path fill="#020202" opacity="1.000000" stroke="none" 
	d="
M11.276056,130.587250 
	C9.696532,125.446198 7.249231,120.607269 7.178500,115.733841 
	C6.794043,89.244438 6.972814,62.746506 7.004878,36.251568 
	C7.022864,21.388903 16.446415,12.017818 31.381750,12.004025 
	C61.209400,11.976478 91.037132,11.971401 120.864761,12.006373 
	C135.417038,12.023435 144.968521,21.488226 144.991806,35.931396 
	C145.034790,62.592941 145.030136,89.254639 144.993744,115.916199 
	C144.973907,130.449966 135.503998,139.971710 121.020775,139.991837 
	C91.526421,140.032837 62.031090,139.877716 32.538113,140.083008 
	C23.953751,140.142761 16.904915,137.628143 11.276056,130.587250 
M94.500000,134.995941 
	C103.829849,134.995926 113.159729,135.010956 122.489540,134.991837 
	C132.545593,134.971252 139.985184,127.540344 139.990707,117.478493 
	C140.005875,89.821846 140.006088,62.165188 139.990540,34.508545 
	C139.984894,24.459402 132.533630,17.014025 122.476997,17.009344 
	C91.488228,16.994921 60.499435,16.994703 29.510664,17.009468 
	C19.460327,17.014257 12.014898,24.465662 12.009352,34.521343 
	C11.994099,62.177986 11.993905,89.834648 12.009455,117.491295 
	C12.015110,127.548088 19.459370,134.982910 29.523170,134.990814 
	C50.848770,135.007584 72.174385,134.995941 94.500000,134.995941 
z"/>
<path fill="#0185CF" opacity="1.000000" stroke="none" 
	d="
M94.000000,134.995941 
	C72.174385,134.995941 50.848770,135.007584 29.523170,134.990814 
	C19.459370,134.982910 12.015110,127.548088 12.009455,117.491295 
	C11.993905,89.834648 11.994099,62.177986 12.009352,34.521343 
	C12.014898,24.465662 19.460327,17.014257 29.510664,17.009468 
	C60.499435,16.994703 91.488228,16.994921 122.476997,17.009344 
	C132.533630,17.014025 139.984894,24.459402 139.990540,34.508545 
	C140.006088,62.165188 140.005875,89.821846 139.990707,117.478493 
	C139.985184,127.540344 132.545593,134.971252 122.489540,134.991837 
	C113.159729,135.010956 103.829849,134.995926 94.000000,134.995941 
M25.502260,127.561317 
	C36.638599,127.691292 47.774826,127.839935 58.911541,127.908417 
	C59.639259,127.912888 60.370758,127.302971 61.781910,126.848404 
	C65.959541,124.855118 67.000908,121.328186 66.991188,117.001633 
	C66.925728,87.856033 66.962502,58.710224 66.951843,29.564486 
	C66.951370,28.278114 66.811584,26.991795 66.727249,25.543285 
	C61.730122,25.543285 57.018715,25.543285 51.899498,25.543285 
	C51.899498,55.150005 51.899498,84.401176 51.899498,114.082016 
	C47.109818,114.409920 42.697273,114.647263 38.297935,115.034599 
	C35.040298,115.321434 33.843002,113.998451 33.948673,110.730133 
	C34.134914,104.969917 34.000778,99.199348 34.000778,93.381653 
	C28.798124,93.381653 24.230621,93.381653 19.253992,93.381653 
	C19.253992,102.308922 19.059824,110.936310 19.350824,119.547302 
	C19.465103,122.928886 20.983294,126.031235 25.502260,127.561317 
M129.024811,47.504612 
	C129.009491,43.338943 129.350525,39.134613 128.903641,35.015766 
	C128.010452,26.783312 126.338005,25.574062 119.193451,25.737091 
	C110.034569,25.946083 100.866051,25.728828 91.701668,25.703667 
	C87.610077,25.692432 83.518433,25.701765 79.486832,25.701765 
	C79.486832,60.111889 79.486832,93.809387 79.486832,127.422073 
	C84.491585,127.422073 89.076248,127.422073 94.047882,127.422073 
	C94.047882,114.749168 94.050583,102.441887 94.047211,90.134605 
	C94.042877,74.306015 94.015800,58.477390 94.048584,42.648888 
	C94.052803,40.611961 93.406021,37.979259 96.870178,37.969173 
	C102.478493,37.952847 108.086891,37.964779 113.748581,37.964779 
	C113.748581,49.305248 113.748581,60.024494 113.748581,71.231018 
	C108.800735,71.231018 104.195549,71.231018 99.382301,71.231018 
	C99.382301,74.983292 98.537598,78.534264 99.525429,81.468246 
	C104.344467,95.781479 109.616043,109.943581 114.856224,124.111542 
	C115.289169,125.282104 116.627258,126.870682 117.639915,126.943573 
	C121.998337,127.257294 126.392265,127.077606 131.192352,127.077606 
	C125.546913,111.434036 120.182823,96.570091 114.738823,81.484726 
	C116.960098,80.959488 118.388176,80.537041 119.846039,80.291031 
	C128.367523,78.853065 128.993713,78.130516 129.000229,69.498199 
	C129.005508,62.499756 129.015579,55.501312 129.024811,47.504612 
z"/>
<path fill="#020303" opacity="1.000000" stroke="none" 
	d="
M129.024170,48.003738 
	C129.015579,55.501312 129.005508,62.499756 129.000229,69.498199 
	C128.993713,78.130516 128.367523,78.853065 119.846039,80.291031 
	C118.388176,80.537041 116.960098,80.959488 114.738823,81.484726 
	C120.182823,96.570091 125.546913,111.434036 131.192352,127.077606 
	C126.392265,127.077606 121.998337,127.257294 117.639915,126.943573 
	C116.627258,126.870682 115.289169,125.282104 114.856224,124.111542 
	C109.616043,109.943581 104.344467,95.781479 99.525429,81.468246 
	C98.537598,78.534264 99.382301,74.983292 99.382301,71.231018 
	C104.195549,71.231018 108.800735,71.231018 113.748581,71.231018 
	C113.748581,60.024494 113.748581,49.305248 113.748581,37.964779 
	C108.086891,37.964779 102.478493,37.952847 96.870178,37.969173 
	C93.406021,37.979259 94.052803,40.611961 94.048584,42.648888 
	C94.015800,58.477390 94.042877,74.306015 94.047211,90.134605 
	C94.050583,102.441887 94.047882,114.749168 94.047882,127.422073 
	C89.076248,127.422073 84.491585,127.422073 79.486832,127.422073 
	C79.486832,93.809387 79.486832,60.111889 79.486832,25.701765 
	C83.518433,25.701765 87.610077,25.692432 91.701668,25.703667 
	C100.866051,25.728828 110.034569,25.946083 119.193451,25.737091 
	C126.338005,25.574062 128.010452,26.783312 128.903641,35.015766 
	C129.350525,39.134613 129.009491,43.338943 129.024170,48.003738 
z"/>
<path fill="#020303" opacity="1.000000" stroke="none" 
	d="
M24.893820,126.950012 
	C20.983294,126.031235 19.465103,122.928886 19.350824,119.547302 
	C19.059824,110.936310 19.253992,102.308922 19.253992,93.381653 
	C24.230621,93.381653 28.798124,93.381653 34.000778,93.381653 
	C34.000778,99.199348 34.134914,104.969917 33.948673,110.730133 
	C33.843002,113.998451 35.040298,115.321434 38.297935,115.034599 
	C42.697273,114.647263 47.109818,114.409920 51.899498,114.082016 
	C51.899498,84.401176 51.899498,55.150005 51.899498,25.543285 
	C57.018715,25.543285 61.730122,25.543285 66.727249,25.543285 
	C66.811584,26.991795 66.951370,28.278114 66.951843,29.564486 
	C66.962502,58.710224 66.925728,87.856033 66.991188,117.001633 
	C67.000908,121.328186 65.959541,124.855118 60.962700,126.882332 
	C48.393600,126.927505 36.643711,126.938759 24.893820,126.950012 
z"/>
<path fill="#404141" opacity="1.000000" stroke="none" 
	d="
M25.198040,127.255661 
	C36.643711,126.938759 48.393600,126.927505 60.621994,126.947548 
	C60.370758,127.302971 59.639259,127.912888 58.911541,127.908417 
	C47.774826,127.839935 36.638599,127.691292 25.198040,127.255661 
z"/>
</svg>